# xmcd CD database file
#
# Track frame offsets:
#	150
#	42757
#	56914
#	84195
#	97069
#	102249
#	123319
#	146295
#	160029
#	179709
#	214750
#	240350
#	278835
#	307840
#	321231
#
# Disc length: 4636 seconds
#
# Revision: 0
# Processed by: cddbd v1.5.2PL0 Copyright (c) Steve Scherf et al.
# Submitted via: CDex 1.51
#
DISCID=c8121a0f
DTITLE=Clemens Monninger - Die besten Musikaufnahmen 1999-2012
DYEAR=2012
DGENRE=Jazz
TTITLE0=Notturno Roma
TTITLE1=Handpfeifeinlage
TTITLE2=Goodbye dear Lozzi
TTITLE3=Yesu Gamutalea
TTITLE4=Ganz in weiss
TTITLE5=Elegie E-Moll
TTITLE6=Bethena
TTITLE7=Valse E-Moll
TTITLE8=There will never be another you
TTITLE9=Careful outset
TTITLE10=Live it up
TTITLE11=Qohelet's song
TTITLE12=The kind of wordl where we belong
TTITLE13=Elegie Fis-Moll
TTITLE14=Corboba
EXTD=YEAR: 2012
EXTT0=
EXTT1=
EXTT2=
EXTT3=
EXTT4=
EXTT5=
EXTT6=
EXTT7=
EXTT8=
EXTT9=
EXTT10=
EXTT11=
EXTT12=
EXTT13=
EXTT14=
PLAYORDER=
